<svg width="32" height="32" viewBox="0 0 32 32" fill="none" xmlns="http://www.w3.org/2000/svg">
<path d="M21.3333 18.6666V15.9999H23.48C23.8 16.9466 24 17.8533 24 18.6666H21.3333ZM20.7733 10.6666C20.16 9.71992 19.5333 8.81325 18.9333 7.99992H18.6667V10.6666H20.7733ZM21.3333 15.9999V13.3333H18.6667V15.9999H21.3333ZM21.3333 11.5733V13.3333H22.32C22 12.7466 21.68 12.1466 21.3333 11.5733ZM16 21.3333V18.6666H18.6667V15.9999H16V13.3333H18.6667V10.6666H16V7.99992H18.6667V7.63992C17.2 5.67992 16 4.33325 16 4.33325C16 4.33325 8 13.3333 8 18.6666C8 23.0799 11.5867 26.6666 16 26.6666V23.9999H18.6667V21.3333H16ZM18.6667 26.1999C19.6667 25.8533 20.56 25.3333 21.3333 24.6133V23.9999H18.6667V26.1999ZM18.6667 21.3333H21.3333V18.6666H18.6667V21.3333ZM21.3333 23.9999H21.9467C22.6667 23.2266 23.1867 22.3333 23.5333 21.3333H21.3333V23.9999Z" fill="#2BCD3E"/>
</svg>
