<svg width="24" height="25" viewBox="0 0 24 25" fill="none" xmlns="http://www.w3.org/2000/svg">
<path d="M12 4.68311C14.2 4.68311 16 6.48311 16 8.68311C16 10.7831 13.9 14.1831 12 16.5831C10.1 14.0831 8 10.7831 8 8.68311C8 6.48311 9.8 4.68311 12 4.68311ZM12 2.68311C8.7 2.68311 6 5.38311 6 8.68311C6 13.1831 12 19.6831 12 19.6831C12 19.6831 18 13.0831 18 8.68311C18 5.38311 15.3 2.68311 12 2.68311ZM12 6.68311C10.9 6.68311 10 7.58311 10 8.68311C10 9.78311 10.9 10.6831 12 10.6831C13.1 10.6831 14 9.78311 14 8.68311C14 7.58311 13.1 6.68311 12 6.68311ZM20 19.6831C20 21.8831 16.4 23.6831 12 23.6831C7.6 23.6831 4 21.8831 4 19.6831C4 18.3831 5.2 17.2831 7.1 16.4831L7.7 17.3831C6.7 17.8831 6 18.4831 6 19.1831C6 20.5831 8.7 21.6831 12 21.6831C15.3 21.6831 18 20.5831 18 19.1831C18 18.4831 17.3 17.8831 16.2 17.3831L16.8 16.4831C18.8 17.2831 20 18.3831 20 19.6831Z" fill="#FFF9EB"/>
</svg>
