<svg width="30" height="30" viewBox="0 0 30 30" fill="none" xmlns="http://www.w3.org/2000/svg">
<g clip-path="url(#clip0_103_3199)">
<path d="M29.9912 0H0.00878906C0.003935 0 0 0.003935 0 0.00878906V29.9912C0 29.9961 0.003935 30 0.00878906 30H29.9912C29.9961 30 30 29.9961 30 29.9912V0.00878906C30 0.003935 29.9961 0 29.9912 0Z" fill="#1DA1F2"/>
<path d="M25.6055 8.90626C24.9023 9.25782 24.082 9.4922 23.2617 9.60939C24.1406 9.08204 24.7852 8.26173 25.1367 7.26564C24.3164 7.73439 23.4375 8.08595 22.5 8.26173C21.8624 7.60866 21.0301 7.18 20.1282 7.04008C19.2263 6.90015 18.3033 7.05651 17.4977 7.48569C16.6922 7.91486 16.0476 8.59371 15.6606 9.42035C15.2736 10.247 15.1652 11.1768 15.3516 12.0703C12.0703 11.8945 8.90625 10.3711 6.85547 7.73439C6.57642 8.18008 6.38836 8.67661 6.30212 9.19533C6.21588 9.71406 6.23318 10.2447 6.35301 10.7567C6.47284 11.2687 6.69284 11.752 7.00032 12.1786C7.3078 12.6051 7.69668 12.9666 8.14453 13.2422C7.5 13.2422 6.85547 13.125 6.26953 12.832C6.32812 14.7656 7.67578 16.4649 9.55078 16.875C8.96484 17.0508 8.32031 17.0508 7.67578 16.9336C8.26172 18.6328 9.84375 19.8047 11.6016 19.8633C9.90234 21.2695 7.61719 21.9141 5.44922 21.5625C7.26089 22.7714 9.37493 23.4487 11.5518 23.5178C13.7287 23.5868 15.8814 23.0447 17.766 21.953C19.6506 20.8612 21.1918 19.2635 22.2149 17.3408C23.238 15.4181 23.7021 13.2472 23.5547 11.0742C24.375 10.4883 25.0781 9.78517 25.6055 8.90626Z" fill="white"/>
</g>
<defs>
<clipPath id="clip0_103_3199">
<rect width="30" height="30" rx="10" fill="white"/>
</clipPath>
</defs>
</svg>
