<svg width="32" height="32" viewBox="0 0 32 32" fill="none" xmlns="http://www.w3.org/2000/svg">
<path d="M16 27.9999L0 11.9666C2.06667 9.89992 4.46133 8.2777 7.184 7.09992C9.90578 5.92214 12.8444 5.33325 16 5.33325C19.1556 5.33325 22.0947 5.92214 24.8173 7.09992C27.5391 8.2777 29.9333 9.89992 32 11.9666L29.5 14.4999C28.8333 13.3666 27.9164 12.4444 26.7493 11.7333C25.5831 11.0221 24.2222 10.6666 22.6667 10.6666C20.4444 10.6666 18.5556 11.4444 17 12.9999C15.4444 14.5555 14.6667 16.4444 14.6667 18.6666C14.6667 20.1999 15.0276 21.5608 15.7493 22.7493C16.472 23.9386 17.3778 24.8555 18.4667 25.4999L16 27.9999ZM28.8 26.6666L25.3667 23.2666C24.9667 23.511 24.5444 23.6946 24.1 23.8173C23.6556 23.939 23.1778 23.9999 22.6667 23.9999C21.1556 23.9999 19.8889 23.4888 18.8667 22.4666C17.8444 21.4444 17.3333 20.1777 17.3333 18.6666C17.3333 17.1555 17.8444 15.8888 18.8667 14.8666C19.8889 13.8444 21.1556 13.3333 22.6667 13.3333C24.1778 13.3333 25.4444 13.8444 26.4667 14.8666C27.4889 15.8888 28 17.1555 28 18.6666C28 19.1777 27.9391 19.6555 27.8173 20.0999C27.6947 20.5444 27.5111 20.9666 27.2667 21.3666L30.6667 24.7999L28.8 26.6666ZM22.6667 21.3333C23.4222 21.3333 24.0556 21.0777 24.5667 20.5666C25.0778 20.0555 25.3333 19.4221 25.3333 18.6666C25.3333 17.911 25.0778 17.2777 24.5667 16.7666C24.0556 16.2555 23.4222 15.9999 22.6667 15.9999C21.9111 15.9999 21.2778 16.2555 20.7667 16.7666C20.2556 17.2777 20 17.911 20 18.6666C20 19.4221 20.2556 20.0555 20.7667 20.5666C21.2778 21.0777 21.9111 21.3333 22.6667 21.3333Z" fill="#FAC734"/>
</svg>
