<svg width="30" height="30" viewBox="0 0 30 30" fill="none" xmlns="http://www.w3.org/2000/svg">
<g clip-path="url(#clip0_103_3193)">
<path d="M25.9574 0H4.0428C1.8102 0 0.000244141 1.80989 0.000244141 4.04256V25.9573C0.000244141 28.19 1.81013 29.9999 4.0428 29.9999H14.851L14.8694 19.2795H12.0843C11.7223 19.2795 11.4285 18.9869 11.4271 18.6249L11.4138 15.1693C11.4124 14.8054 11.707 14.5096 12.071 14.5096H14.851V11.1706C14.851 7.29576 17.2176 5.18587 20.6742 5.18587H23.5106C23.8735 5.18587 24.1678 5.48008 24.1678 5.84305V8.75684C24.1678 9.11967 23.8738 9.4138 23.511 9.41402L21.7703 9.41483C19.8905 9.41483 19.5265 10.3081 19.5265 11.619V14.5097H23.6571C24.0507 14.5097 24.3561 14.8534 24.3097 15.2442L23.9001 18.6998C23.8609 19.0305 23.5805 19.2797 23.2475 19.2797H19.5449L19.5265 30H25.9575C28.1901 30 30 28.1901 30 25.9575V4.04256C29.9999 1.80989 28.1901 0 25.9574 0Z" fill="#475993"/>
</g>
<defs>
<clipPath id="clip0_103_3193">
<rect width="30" height="30" fill="white"/>
</clipPath>
</defs>
</svg>
