<svg width="56" height="67" viewBox="0 0 56 67" fill="none" xmlns="http://www.w3.org/2000/svg">
<path d="M0 0H22.5C41.0015 0 56 14.9985 56 33.5V39C56 54.464 43.464 67 28 67C12.536 67 0 54.464 0 39V0Z" fill="#FE5200"/>
<path d="M27.9646 48.1094L26.5367 44.5319L29.2674 44.4844L27.9646 48.1094Z" fill="#FFF9EB"/>
<path d="M20.9185 46.0547L21.4621 42.2396L23.8514 43.5701L20.9185 46.0547Z" fill="#FFF9EB"/>
<path d="M15.4905 40.6289L17.8598 37.5976L19.2663 39.95L15.4905 40.6289Z" fill="#FFF9EB"/>
<path d="M13.3913 33.5347L16.9513 32.1001L16.9993 34.8438L13.3913 33.5347Z" fill="#FFF9EB"/>
<path d="M15.4348 26.4582L19.2326 27.0037L17.9084 29.4043L15.4348 26.4582Z" fill="#FFF9EB"/>
<path d="M20.8369 20.9994L23.8541 23.3798L21.5127 24.793L20.8369 20.9994Z" fill="#FFF9EB"/>
<path d="M27.898 18.8926L29.3265 22.4694L26.5951 22.5176L27.898 18.8926Z" fill="#FFF9EB"/>
<path d="M34.9445 20.946L34.4009 24.7617L32.0122 23.4312L34.9445 20.946Z" fill="#FFF9EB"/>
<path d="M40.3729 26.373L38.0036 29.4043L36.5965 27.0519L40.3729 26.373Z" fill="#FFF9EB"/>
<path d="M42.4721 33.4671L38.9114 34.9023L38.8641 32.1581L42.4721 33.4671Z" fill="#FFF9EB"/>
<path d="M40.4276 40.543L36.6304 39.9968L37.9547 37.5969L40.4276 40.543Z" fill="#FFF9EB"/>
<path d="M35.0253 46.002L32.0081 43.6215L34.3496 42.2084L35.0253 46.002Z" fill="#FFF9EB"/>
<path d="M33.5843 27.8216C36.7057 30.9577 36.7057 36.0423 33.5843 39.1784C30.463 42.3145 25.4022 42.3145 22.2808 39.1784C19.1595 36.0423 19.1595 30.9577 22.2808 27.8216C25.4022 24.6855 30.463 24.6855 33.5843 27.8216Z" fill="#FFF9EB"/>
</svg>
