<svg width="24" height="25" viewBox="0 0 24 25" fill="none" xmlns="http://www.w3.org/2000/svg">
<path d="M4 20.6831C3.45 20.6831 2.97933 20.4874 2.588 20.0961C2.196 19.7041 2 19.2331 2 18.6831V6.68311C2 6.13311 2.196 5.66244 2.588 5.27111C2.97933 4.87911 3.45 4.68311 4 4.68311H14.1C14.0333 5.01644 14 5.34977 14 5.68311C14 6.01644 14.0333 6.34977 14.1 6.68311H4L12 11.6831L15.65 9.40811C15.8833 9.62477 16.1377 9.81211 16.413 9.97011C16.6877 10.1288 16.975 10.2664 17.275 10.3831L12 13.6831L4 8.68311V18.6831H20V10.5831C20.3833 10.4998 20.7417 10.3831 21.075 10.2331C21.4083 10.0831 21.7167 9.89977 22 9.68311V18.6831C22 19.2331 21.8043 19.7041 21.413 20.0961C21.021 20.4874 20.55 20.6831 20 20.6831H4ZM4 6.68311V18.6831V6.68311ZM19 8.68311C18.1667 8.68311 17.4583 8.39144 16.875 7.80811C16.2917 7.22477 16 6.51644 16 5.68311C16 4.84977 16.2917 4.14144 16.875 3.55811C17.4583 2.97477 18.1667 2.68311 19 2.68311C19.8333 2.68311 20.5417 2.97477 21.125 3.55811C21.7083 4.14144 22 4.84977 22 5.68311C22 6.51644 21.7083 7.22477 21.125 7.80811C20.5417 8.39144 19.8333 8.68311 19 8.68311Z" fill="#FFF9EB"/>
</svg>
