<svg width="25" height="25" viewBox="0 0 25 25" fill="none" xmlns="http://www.w3.org/2000/svg">
<path d="M16.5167 12.5929L23.8052 5.30439C24.8449 4.2647 24.8449 2.57907 23.8052 1.53938C22.7654 0.499691 21.0799 0.499691 20.0402 1.53938L12.7517 8.82785L5.46323 1.53938C4.42355 0.499691 2.73791 0.499691 1.69822 1.53938C0.658535 2.57907 0.658535 4.2647 1.69822 5.30439L8.98669 12.5929L1.69822 19.8813C0.658535 20.921 0.658535 22.6066 1.69822 23.6463C2.21807 24.1661 2.89938 24.4261 3.5807 24.4261C4.26202 24.4261 4.94339 24.1662 5.46318 23.6463L12.7517 16.3579L20.0402 23.6463C20.56 24.1661 21.2413 24.4261 21.9226 24.4261C22.604 24.4261 23.2853 24.1662 23.8051 23.6463C24.8448 22.6066 24.8448 20.921 23.8051 19.8813L16.5167 12.5929Z" fill="#2B3B47"/>
</svg>
