<svg width="56" height="67" viewBox="0 0 56 67" fill="none" xmlns="http://www.w3.org/2000/svg">
<path d="M0 0H22.5C41.0015 0 56 14.9985 56 33.5V39C56 54.464 43.464 67 28 67C12.536 67 0 54.464 0 39V0Z" fill="#1A1A1A"/>
<path d="M42.0098 37.0046C42.0098 30.0981 36.4372 24.4998 29.5636 24.4998C27.453 24.4986 25.3768 25.037 23.5305 26.0644C21.6842 27.0917 20.1284 28.5743 19.0098 30.3724C20.9878 29.1261 23.2761 28.4668 25.6109 28.4706C32.485 28.4706 38.057 34.0694 38.057 40.976C38.0607 43.3217 37.4046 45.6208 36.1641 47.6081C37.9539 46.4842 39.4296 44.9212 40.4523 43.0662C41.4749 41.2111 42.0109 39.1252 42.0098 37.0046Z" fill="#FFEEE6"/>
<path d="M26.3325 43.3653L26.9085 42.3076C27.2154 41.7437 27.6767 41.28 28.2377 40.9715L29.2911 40.3927L28.2377 39.814C27.6767 39.5054 27.2154 39.0418 26.9085 38.4779L26.3325 37.4207L25.7564 38.4785C25.4495 39.0425 24.988 39.5062 24.4267 39.8146L23.3739 40.3933L24.4267 40.9721C24.988 41.2804 25.4495 41.7441 25.7564 42.3081L26.3325 43.3653Z" fill="#FFEEE6"/>
<path d="M30.9148 37.3021L31.2077 36.7636C31.3639 36.4764 31.5989 36.2403 31.8847 36.0834L32.4201 35.7892L31.8847 35.4944C31.5987 35.3376 31.3637 35.1015 31.2077 34.8142L30.9148 34.2762L30.622 34.8142C30.4659 35.1015 30.2309 35.3376 29.945 35.4944L29.4096 35.7892L29.945 36.0834C30.2308 36.2403 30.4658 36.4764 30.622 36.7636L30.9148 37.3021Z" fill="#FFEEE6"/>
<path d="M23.3734 36.5225L23.5155 36.2612C23.5911 36.1221 23.7049 36.0078 23.8433 35.9319L24.1028 35.7896L23.8433 35.6467C23.7049 35.5708 23.5911 35.4565 23.5155 35.3174L23.3734 35.0566L23.2312 35.3174C23.1555 35.4564 23.0418 35.5707 22.9034 35.6467L22.6439 35.7896L22.9034 35.9319C23.0418 36.0079 23.1555 36.1222 23.2312 36.2612L23.3734 36.5225Z" fill="#FFEEE6"/>
</svg>
