<svg width="32" height="32" viewBox="0 0 32 32" fill="none" xmlns="http://www.w3.org/2000/svg">
<path d="M29 13V19C29 19.5304 28.7893 20.0391 28.4142 20.4142C28.0391 20.7893 27.5304 21 27 21H21V27C21 27.5304 20.7893 28.0391 20.4142 28.4142C20.0391 28.7893 19.5304 29 19 29H13C12.4696 29 11.9609 28.7893 11.5858 28.4142C11.2107 28.0391 11 27.5304 11 27V21H5C4.46957 21 3.96086 20.7893 3.58579 20.4142C3.21071 20.0391 3 19.5304 3 19V13C3 12.4696 3.21071 11.9609 3.58579 11.5858C3.96086 11.2107 4.46957 11 5 11H11V5C11 4.46957 11.2107 3.96086 11.5858 3.58579C11.9609 3.21071 12.4696 3 13 3H19C19.5304 3 20.0391 3.21071 20.4142 3.58579C20.7893 3.96086 21 4.46957 21 5V11H27C27.5304 11 28.0391 11.2107 28.4142 11.5858C28.7893 11.9609 29 12.4696 29 13Z" fill="#C61010"/>
</svg>
