<svg width="24" height="29" viewBox="0 0 24 29" fill="none" xmlns="http://www.w3.org/2000/svg">
<g clip-path="url(#clip0_111_15830)">
<path d="M12.0053 8.2329C8.5982 8.2329 5.84999 10.9797 5.84999 14.3851C5.84999 17.7905 8.5982 20.5374 12.0053 20.5374C15.4125 20.5374 18.1607 17.7905 18.1607 14.3851C18.1607 10.9797 15.4125 8.2329 12.0053 8.2329ZM12.0053 18.3849C9.80356 18.3849 8.00356 16.5911 8.00356 14.3851C8.00356 12.1791 9.7982 10.3854 12.0053 10.3854C14.2125 10.3854 16.0071 12.1791 16.0071 14.3851C16.0071 16.5911 14.2071 18.3849 12.0053 18.3849ZM19.8482 7.98124C19.8482 8.77905 19.2053 9.41622 18.4125 9.41622C17.6143 9.41622 16.9768 8.77369 16.9768 7.98124C16.9768 7.18878 17.6196 6.54625 18.4125 6.54625C19.2053 6.54625 19.8482 7.18878 19.8482 7.98124ZM23.925 9.43764C23.8339 7.5154 23.3946 5.8127 21.9857 4.40984C20.5821 3.00698 18.8786 2.56792 16.9553 2.47154C14.9732 2.3591 9.03213 2.3591 7.04999 2.47154C5.13213 2.56256 3.42856 3.00163 2.01963 4.40449C0.610704 5.80734 0.176775 7.51005 0.0803467 9.43229C-0.0321533 11.4134 -0.0321533 17.3515 0.0803467 19.3326C0.171418 21.2548 0.610704 22.9576 2.01963 24.3604C3.42856 25.7633 5.12678 26.2023 7.04999 26.2987C9.03213 26.4112 14.9732 26.4112 16.9553 26.2987C18.8786 26.2077 20.5821 25.7686 21.9857 24.3604C23.3893 22.9576 23.8286 21.2548 23.925 19.3326C24.0375 17.3515 24.0375 11.4188 23.925 9.43764ZM21.3643 21.4583C20.9464 22.5078 20.1375 23.3163 19.0821 23.7393C17.5018 24.3658 13.7518 24.2212 12.0053 24.2212C10.2589 24.2212 6.50356 24.3604 4.92856 23.7393C3.87856 23.3217 3.06963 22.5131 2.64642 21.4583C2.01963 19.8788 2.16428 16.1307 2.16428 14.3851C2.16428 12.6396 2.02499 8.88614 2.64642 7.31194C3.06428 6.26247 3.8732 5.45395 4.92856 5.03095C6.50892 4.40448 10.2589 4.54905 12.0053 4.54905C13.7518 4.54905 17.5071 4.40984 19.0821 5.03095C20.1321 5.4486 20.9411 6.25711 21.3643 7.31194C21.9911 8.89149 21.8464 12.6396 21.8464 14.3851C21.8464 16.1307 21.9911 19.8841 21.3643 21.4583Z" fill="#FFF9EB"/>
</g>
<defs>
<clipPath id="clip0_111_15830">
<rect width="24" height="27.4146" fill="white" transform="translate(0 0.683105)"/>
</clipPath>
</defs>
</svg>
